<?xml version="1.0" encoding="UTF-8"?>
<svg width="30px" height="16px" viewBox="0 0 30 16" version="1.1" xmlns="http://www.w3.org/2000/svg" xmlns:xlink="http://www.w3.org/1999/xlink">
    <!-- Generator: Sketch 52.5 (67469) - http://www.bohemiancoding.com/sketch -->
    <title>图表 下降趋势</title>
    <desc>Created with Sketch.</desc>
    <g id="Page-1" stroke="none" stroke-width="1" fill="none" fill-rule="evenodd">
        <g id="首页--未登录" transform="translate(-466.000000, -367.000000)" fill="#FFFFFF">
            <g id="分组-7-copy" transform="translate(465.000000, 357.000000)">
                <g id="图表-下降趋势" transform="translate(0.000000, 1.000000)">
                    <rect id="矩形" opacity="0" x="0" y="0" width="32" height="32"></rect>
                    <path d="M27.7,23 L22,23 C21.4,23 21,23.4 21,24 C21,24.6 21.4,25 22,25 L29,25 C30.1,25 31,24.1 31,23 L31,16 C31,15.4 30.6,15 30,15 C29.4,15 29,15.4 29,16 L29,21.4 L19.7,12.1 C19.5,11.9 19.2,11.8 19,11.8 C18.7,11.8 18.5,11.9 18.3,12.1 L11.9,18.5 L2.7,9.3 C2.3,8.9 1.7,8.9 1.3,9.3 C0.9,9.7 0.9,10.3 1.3,10.7 L11.2,20.6 C11.4,20.8 11.7,20.9 11.9,20.9 C12.2,20.9 12.4,20.8 12.6,20.6 L19,14.2 L27.7,23 Z" id="路径"></path>
                </g>
            </g>
        </g>
    </g>
</svg>