<?xml version="1.0" encoding="UTF-8"?>
<svg width="30px" height="16px" viewBox="0 0 30 16" version="1.1" xmlns="http://www.w3.org/2000/svg" xmlns:xlink="http://www.w3.org/1999/xlink">
    <!-- Generator: Sketch 52.5 (67469) - http://www.bohemiancoding.com/sketch -->
    <title>图表 上升趋势</title>
    <desc>Created with Sketch.</desc>
    <g id="Page-1" stroke="none" stroke-width="1" fill="none" fill-rule="evenodd">
        <g id="首页--未登录" transform="translate(-696.000000, -366.000000)" fill="#FFFFFF">
            <g id="分组-7-copy" transform="translate(465.000000, 357.000000)">
                <g id="图表-上升趋势" transform="translate(230.000000, 1.000000)">
                    <rect id="矩形" opacity="0" x="0" y="0" width="32" height="32"></rect>
                    <path d="M29,11.3 L29,17 C29,17.6 29.4,18 30,18 C30.6,18 31,17.6 31,17 L31,10 C31,8.9 30.1,8 29,8 L22,8 C21.4,8 21,8.4 21,9 C21,9.6 21.4,10 22,10 L27.5,10 L19,18.5 L12.6,12.1 C12.4,11.9 12.1,11.8 11.9,11.8 C11.6,11.8 11.4,11.9 11.2,12.1 L1.3,22 C0.9,22.4 0.9,23 1.3,23.4 C1.7,23.8 2.3,23.8 2.7,23.4 L11.9,14.2 L18.3,20.6 C18.5,20.8 18.8,20.9 19,20.9 C19.3,20.9 19.5,20.8 19.7,20.6 L29,11.3 Z" id="路径"></path>
                </g>
            </g>
        </g>
    </g>
</svg>