<svg xmlns="http://www.w3.org/2000/svg" xmlns:xlink="http://www.w3.org/1999/xlink" viewBox="0 0 128 128">
  <defs>
    <style>
      .cls-1, .cls-2, .cls-6, .cls-7 {
        fill: none;
      }

      .cls-2 {
        stroke: #0d1a26;
        stroke-opacity: 0.2;
        stroke-dasharray: 1;
      }

      .cls-2, .cls-6, .cls-7 {
        stroke-width: 0.5px;
      }

      .cls-3 {
        fill: #314659;
      }

      .cls-4 {
        fill: #a3b1bf;
      }

      .cls-5 {
        fill: url(#未命名的渐变_3);
      }

      .cls-6, .cls-7 {
        stroke: #314659;
      }

      .cls-6 {
        stroke-dasharray: 3;
      }
    </style>
    <linearGradient id="未命名的渐变_3" data-name="未命名的渐变 3" x1="-292.7" y1="380.83" x2="-291.83" y2="381.08" gradientTransform="matrix(36, 0, 0, -36, 10590, 13777)" gradientUnits="userSpaceOnUse">
      <stop offset="0" stop-color="#0edede"/>
      <stop offset="0.67" stop-color="#1890ff"/>
      <stop offset="1" stop-color="#2f54eb"/>
    </linearGradient>
  </defs>
  <title>Icon -提高效率</title>
  <g id="前台立体图标">
    <g id="图标">
      <g id="金融智能">
        <g>
          <rect id="Rectangle" class="cls-1" x="14" y="14" width="100" height="100"/>
          <g id="Group">
            <path id="Oval-2" class="cls-2" d="M28,63c0-4.42,15.89-8,35.5-8S99,58.58,99,63"/>
            <path id="Oval-2-2" data-name="Oval-2" class="cls-2" d="M64.5,28.5c4.42,0,8,15.89,8,35.5s-3.58,35.5-8,35.5"/>
            <path id="Oval-2-3" data-name="Oval-2" class="cls-2" d="M88.43,38.73c-3.12-3.13-16.89,5.58-30.76,19.44S35.1,85.81,38.23,88.93"/>
            <g id="Group-9">
              <path id="Oval-2-4" data-name="Oval-2" class="cls-2" d="M89.89,89.31c3-3-5.83-16.67-19.7-30.54S42.64,36.07,39.64,39.06"/>
            </g>
            <g id="Group-16">
              <circle id="Oval-13" class="cls-3" cx="27.5" cy="62.93" r="1.5"/>
              <circle id="Oval-13-2" data-name="Oval-13" class="cls-3" cx="63.05" cy="27.5" r="1.5"/>
              <circle id="Oval-13-3" data-name="Oval-13" class="cls-4" cx="38" cy="40" r="1"/>
              <circle id="Oval-13-4" data-name="Oval-13" class="cls-3" cx="99.82" cy="62.93" r="1.5"/>
              <circle id="Oval-13-5" data-name="Oval-13" class="cls-4" cx="89" cy="40" r="1"/>
              <circle id="Oval-13-6" data-name="Oval-13" class="cls-3" cx="63.05" cy="98.81" r="1.5"/>
              <circle id="Oval-13-7" data-name="Oval-13" class="cls-4" cx="39" cy="90" r="1"/>
              <circle id="Oval-13-8" data-name="Oval-13" class="cls-4" cx="89" cy="90.5" r="1"/>
              <circle id="Oval-12" class="cls-5" cx="64" cy="64" r="18"/>
              <path id="Oval-2-5" data-name="Oval-2" class="cls-6" d="M28.45,63.27c0,4.41,15.92,8,35.55,8s35.55-3.58,35.55-8"/>
              <path id="Oval-2-6" data-name="Oval-2" class="cls-7" d="M63.71,99.36c-4.42,0-8-15.92-8-35.55s3.58-35.55,8-35.55"/>
              <path id="Oval-2-7" data-name="Oval-2" class="cls-6" d="M88.46,90.68c-3.12,3.12-16.91-5.6-30.79-19.48S35.06,43.53,38.18,40.41"/>
              <g id="Group-9-2" data-name="Group-9">
                <path id="Oval-2-8" data-name="Oval-2" class="cls-6" d="M89.13,39.8c3.12,3.12-5.61,16.9-19.49,30.79S42,93.19,38.85,90.07"/>
              </g>
            </g>
          </g>
        </g>
      </g>
    </g>
  </g>
</svg>
