<svg xmlns="http://www.w3.org/2000/svg" viewBox="0 0 208 208">
  <defs>
    <style>
      .cls-1 {
        fill: #fff;
      }

      .cls-2 {
        fill: none;
      }

      .cls-3 {
        fill: #0c1a26;
      }

      .cls-4 {
        fill: #abb8c5;
      }

      .cls-5 {
        fill: #bac5cf;
      }

      .cls-6 {
        fill: #2f54eb;
      }
    </style>
  </defs>
  <title>Icon -确认资格</title>
  <g id="前台平面图标">
    <circle class="cls-1" cx="104" cy="104" r="104"/>
    <path class="cls-2" d="M69.46,147.57c19.18,11.07,50.26,11.07,69.3,0C148.29,142,153,134.77,153,127.5H55C55.06,134.77,59.88,142,69.46,147.57Z"/>
    <path class="cls-3" d="M138.76,147.57c-19,11.07-50.12,11.07-69.3,0C59.88,142,55.06,134.77,55,127.5H54c0,7.41,5,14.82,14.76,20.48,19.59,11.31,51.25,11.31,70.71,0C149.2,142.32,154,134.91,154,127.5h-1C153,134.77,148.29,142,138.76,147.57Z"/>
    <path class="cls-4" d="M54.5,127.5h-1a18.29,18.29,0,0,1,.5-4.08l1,.24A17.31,17.31,0,0,0,54.5,127.5Zm98.87-2.2a18.22,18.22,0,0,0-.93-3.77l.94-.34a18.67,18.67,0,0,1,1,4ZM56.29,120l-.9-.43a22.69,22.69,0,0,1,2.1-3.5l.81.58A22.51,22.51,0,0,0,56.29,120Zm94.45-2a24.69,24.69,0,0,0-2.31-3.16l.76-.65a25,25,0,0,1,2.4,3.29Zm-89.91-4.37-.71-.7a33.23,33.23,0,0,1,3-2.72l.62.78A35.79,35.79,0,0,0,60.83,113.66Zm84.84-1.59a35.42,35.42,0,0,0-3.09-2.45l.58-.82a37.73,37.73,0,0,1,3.17,2.52ZM67,108.71l-.55-.84c.67-.43,1.37-.86,2.1-1.28.45-.26.91-.52,1.38-.77l.47.88-1.35.75C68.3,107.86,67.61,108.28,67,108.71Zm72.33-1.22c-1.17-.68-2.33-1.29-3.53-1.87l.43-.9c1.23.59,2.41,1.22,3.53,1.87ZM73.92,105l-.4-.91c1.2-.54,2.46-1,3.74-1.51l.34.94C76.35,103.94,75.11,104.44,73.92,105Zm58.21-.93c-1.2-.47-2.46-.93-3.73-1.34l.31-1c1.29.42,2.57.88,3.79,1.36Zm-50.76-1.8-.29-1c1.27-.38,2.57-.73,3.89-1l.23,1C83.9,101.51,82.61,101.86,81.37,102.23Zm43.22-.65c-1.26-.33-2.56-.64-3.88-.9l.21-1c1.33.27,2.65.58,3.92.91Zm-35.5-1.19-.18-1c1.31-.24,2.65-.45,4-.63l.14,1C91.71,99.94,90.39,100.15,89.09,100.39ZM116.8,100c-1.3-.2-2.63-.37-4-.5l.11-1c1.33.14,2.68.31,4,.51ZM97,99.34l-.09-1c1.34-.11,2.69-.19,4-.24l0,1C99.62,99.15,98.29,99.23,97,99.34Zm11.92-.17c-1.3-.08-2.64-.12-4-.13V98c1.35,0,2.71.06,4,.13Z"/>
    <path class="cls-5" d="M104.05,137c-.87,0-1.74,0-2.6-.12l.09-1a25.66,25.66,0,0,0,3.92.08l.06,1C105,137,104.54,137,104.05,137Zm5.51-.57-.21-1a20.14,20.14,0,0,0,3.71-1.17l.4.92A21.2,21.2,0,0,1,109.56,136.41Zm-12.13-.27a19.26,19.26,0,0,1-3.83-1.44l.45-.89a18.2,18.2,0,0,0,3.64,1.37ZM117,133.07l-.64-.77a7.3,7.3,0,0,0,2.27-2.93l.93.37A8.34,8.34,0,0,1,117,133.07Zm-26.8-.75a7.31,7.31,0,0,1-2.09-3.68l1-.2a6.3,6.3,0,0,0,1.82,3.17Zm28.48-6.5a7.26,7.26,0,0,0-2.2-3l.64-.77a8.28,8.28,0,0,1,2.5,3.39Zm-29-.89-.87-.49a9.43,9.43,0,0,1,2.87-3l.57.81A8.52,8.52,0,0,0,89.7,124.93Zm25-3.35a17.51,17.51,0,0,0-3.56-1.53l.29-1a17.92,17.92,0,0,1,3.77,1.62Zm-19-1.15-.35-.93a22.51,22.51,0,0,1,3.94-1.07l.18,1A21.69,21.69,0,0,0,95.7,120.43Zm11.59-1.19a25.55,25.55,0,0,0-3.92-.21l0-1a27.27,27.27,0,0,1,4.06.21Z"/>
    <path class="cls-6" d="M130.39,64.23c-11.1-1.28-19.46-4.35-24.83-9.12l-1.42-1.26L102.62,55c-8.42,6.14-16.75,9.25-24.74,9.25H75.5v34c0,10.41,9,19.86,27.48,28.87l1,.47,1-.43c18.29-8,27.56-17.75,27.56-28.91V64.47Z"/>
    <circle class="cls-3" cx="54.5" cy="127.5" r="3"/>
    <circle class="cls-3" cx="153.5" cy="127.5" r="3"/>
    <path class="cls-1" d="M104,70.5l5.26,10.66L121,82.86l-8.5,8.3,2,11.71L104,97.34l-10.52,5.53,2-11.71L87,82.86l11.75-1.7Z"/>
  </g>
</svg>
