<?xml version="1.0" encoding="UTF-8"?>
<svg width="106px" height="47px" viewBox="0 0 106 47" version="1.1" xmlns="http://www.w3.org/2000/svg" xmlns:xlink="http://www.w3.org/1999/xlink">
    <!-- Generator: Sketch 52.5 (67469) - http://www.bohemiancoding.com/sketch -->
    <title>分组 4</title>
    <desc>Created with Sketch.</desc>
    <g id="Page-1" stroke="none" stroke-width="1" fill="none" fill-rule="evenodd">
        <g id="首页--未登录" transform="translate(-448.000000, -15.000000)">
            <g id="分组-8">
                <g id="分组-5">
                    <g id="分组-4" transform="translate(448.000000, 15.000000)">
                        <text id="让工程更简单" font-family="PingFang-SC-Regular, PingFang SC" font-size="9" font-weight="normal" letter-spacing="10.4899998" fill="#1B275E">
                            <tspan x="0" y="46">让工程更简</tspan>
                            <tspan x="97.4499989" y="46">单</tspan>
                        </text>
                        <g id="分组-2-copy-2" transform="translate(1.000000, 0.000000)">
                            <path d="M4.88582012,25.71594 L9.24285854,23.100306 L14.9369522,26.2893974 L20.5802993,23.100306 L24.9880842,25.71594 L14.9617561,31.3619108 L4.88582012,25.71594 Z M19.6015163,0.000323709426 L28.772596,5.89473734 L28.6520071,17.7908742 L24.5204006,15.2903664 L24.5975017,8.58857387 L19.4160301,5.25670497 L19.6015163,0.000323709426 Z M0.347006982,17.7903616 L0.251643568,5.85206822 L9.39782123,-1.59872116e-14 L9.55912519,5.30048526 L4.40195127,8.58832349 L4.45457228,15.3340402 L0.347006982,17.7903616 Z" id="合并形状-copy-4" fill="#2253DD" transform="translate(14.512120, 15.680955) scale(1, -1) translate(-14.512120, -15.680955) "></path>
                            <path d="M103.360317,7.85999509 L84.6496032,7.85999509 L84.6496032,6.5049505 L103.360317,6.5049505 L103.360317,7.85999509 Z M102.251534,27 L86.0035979,27 C85.2786243,27 84.8308466,26.3101387 85.0227513,25.5972821 L88.135873,14.4215293 L83.85,14.4215293 L83.85,13.1107929 L104,13.1107929 L104,14.4215293 L91.483545,14.4215293 L88.4983598,25.1143792 C88.4343915,25.4363144 88.6262963,25.6892636 88.8821693,25.6892636 L99.287672,25.6892636 C99.543545,25.6892636 99.7567725,25.4133191 99.6714815,25.1143792 L97.8803704,18.2617571 L101.249365,18.2617571 L103.14709,25.5972821 C103.338995,26.2871433 102.91254,27 102.251534,27 Z M39,13.4835058 C40.5466788,10.4816721 41.8019063,7.31170044 42.6986157,4 L45.8582123,4 C46.7549216,7.31170044 48.0101492,10.4816721 49.556,13.4835058 L46.3964035,13.4835058 C45.4549828,11.7440268 44.827369,10.1718054 44.2668222,8.28883693 C43.7071033,10.1718054 43.1233728,11.6964904 42.1827801,13.4835058 L39,13.4835058 Z M44.0728854,26.6926746 L39.8686273,20.3669335 L43.2497626,20.3669335 L43.8896878,21.3607867 L46.0601994,17.1194511 L39.3198788,17.1194511 L39.3198788,15.7620805 L42.7018583,15.7620805 L42.7018583,13.3141575 L46.0154553,13.3141575 L46.0154553,15.7620805 L48.6207445,15.7620805 C48.8723246,15.7620805 49.1230605,15.9080247 49.2606698,16.1739476 C49.420229,16.4407658 49.4430231,16.7801085 49.3062581,17.0469267 L45.6954927,24.0504577 L47.4557092,26.6926746 L44.0728854,26.6926746 Z M61.5514545,11.1126293 C62.499249,8.98764674 63.2661539,6.77064065 63.7854819,4.50804495 L67.2148807,4.50804495 C67.0564981,5.17078287 66.9206226,5.81072599 66.7180596,6.47346391 L72.4273333,6.47346391 L72.4273333,7.77614494 L70.5309108,7.77614494 L71.4336913,11.1126293 L67.9817856,11.1126293 L67.0798387,7.77614494 L66.3346072,7.77614494 C65.9736617,8.89562326 65.5226883,10.0159458 65.0258673,11.1126293 L61.5514545,11.1126293 Z M61.5971926,12.8061125 L69.6617792,12.8061125 L69.6617792,14.187531 L67.371396,14.187531 L67.371396,25.0687752 L69.868303,24.8986719 L69.868303,26.2800903 L61.3915152,26.8620229 L61.3915152,25.4806044 L63.8884222,25.3105011 L63.8884222,14.187531 L61.5971926,14.187531 L61.5971926,12.8061125 Z M72.1074545,11.1126293 C73.0326711,8.98764674 73.822856,6.77064065 74.3188054,4.50804495 L77.7712801,4.50804495 C77.6120762,5.17078287 77.4545393,5.81072599 77.2744972,6.47346391 L82.9833333,6.47346391 L82.9833333,7.77614494 L81.0870562,7.77614494 L81.9672622,11.1126293 L78.5381263,11.1126293 L77.6579203,7.77614494 L76.8902406,7.77614494 C76.5301563,8.89562326 76.0792175,10.0159458 75.5599292,11.1126293 L72.1074545,11.1126293 Z M74.7162757,19.2024576 L78.7049129,17.0239133 L78.7049129,14.3040021 C78.7049129,13.9500649 78.4151295,13.6432031 78.0808908,13.6432031 L75.3402978,13.6432031 C74.9830081,13.6432031 74.7162757,13.9500649 74.7162757,14.3040021 L74.7162757,19.2024576 Z M82.4045899,25.347539 L82.9833333,25.347539 L82.9833333,26.6926746 L80.1974617,26.6926746 C79.3733903,26.6926746 78.7049129,25.9848003 78.7049129,25.1356998 L78.7049129,20.0236615 L74.6652343,22.2301023 C74.5623283,24.1131178 74.2865402,25.2446706 73.7357872,26.6926746 L70.3481212,26.6926746 C71.1063327,24.8759134 71.3961161,23.0591522 71.3961161,20.0149439 L71.3961161,13.8794518 C71.3961161,13.0059419 72.0637703,12.2980676 72.8878417,12.2980676 L80.5094727,12.2980676 C81.3343674,12.2980676 81.9806171,13.0059419 81.9806171,13.8794518 L81.9806171,24.8994511 C81.9806171,25.1592375 82.1806664,25.347539 82.4045899,25.347539 Z M56.5997671,10.1129015 L53.4553088,10.1129015 C53.113593,10.1129015 52.7718773,10.4481139 52.7718773,10.8310875 L52.7718773,16.1591072 L57.1914572,13.7630904 L57.1914572,10.8310875 C57.1914572,10.4481139 56.918758,10.1129015 56.5997671,10.1129015 Z M52.8484687,19.1609829 L57.1914572,20.6194664 L57.1914572,16.8074204 L52.8484687,19.1609829 Z M60.2450158,6.09123723 L56.4853008,6.09123723 L56.0299603,8.74905585 L58.6500617,8.74905585 C59.424393,8.74905585 60.0623746,9.49023788 60.0623746,10.3764722 L60.0623746,27 L57.1914572,27 L57.1914572,23.4594849 L52.7718773,21.9753519 L52.7718773,27 L49.9018015,27 L49.9018015,10.3764722 C49.9018015,9.49023788 50.5162166,8.74905585 51.3368394,8.74905585 L53.0454182,8.74905585 L53.5007587,6.09123723 L49.7191604,6.09123723 L49.7191604,4.7026265 L60.2450158,4.7026265 L60.2450158,6.09123723 Z" id="形状结合备份-3-copy-3" fill="#182253" fill-rule="nonzero"></path>
                        </g>
                    </g>
                </g>
            </g>
        </g>
    </g>
</svg>