<?xml version="1.0" encoding="UTF-8"?>
<svg width="27px" height="21px" viewBox="0 0 27 21" version="1.1" xmlns="http://www.w3.org/2000/svg" xmlns:xlink="http://www.w3.org/1999/xlink">
    <!-- Generator: Sketch 52.5 (67469) - http://www.bohemiancoding.com/sketch -->
    <title>消息</title>
    <desc>Created with Sketch.</desc>
    <g id="Page-1" stroke="none" stroke-width="1" fill="none" fill-rule="evenodd">
        <g id="首页--未登录" transform="translate(-459.000000, -575.000000)" fill="#F96A10">
            <g id="消息" transform="translate(457.000000, 570.000000)">
                <g id="分组">
                    <rect id="矩形" opacity="0" x="0" y="0" width="31" height="31"></rect>
                    <path d="M16.7916667,5.16666668 C16.5333334,5.16666668 16.1458334,5.29583335 15.8875,5.55416668 L10.3333333,10.3333333 L7.75,10.3333333 L7.75,20.6666667 L10.2041667,20.6666667 L15.8875,25.4458333 C16.1458333,25.7041666 16.4041667,25.8333333 16.7916667,25.8333333 C17.4375,25.8333333 18.0833334,25.3166666 18.0833333,24.5416667 L18.0833333,6.45833332 C18.0833333,5.68333332 17.4375,5.16666665 16.7916667,5.16666668 Z M16.7916667,24.5416667 L10.9791667,19.6333333 L10.5916667,19.375 L9.04166668,19.375 L9.04166668,11.625 L10.85,11.625 L11.2375,11.3666667 L16.7916667,6.5875 L16.7916667,24.5416667 Z M5.16666668,10.3333333 L6.45833332,10.3333333 L6.45833332,20.6666667 L5.16666668,20.6666667 C3.74583335,20.6666667 2.58333335,19.5041667 2.58333332,18.0833333 L2.58333332,12.9166667 C2.58333332,11.4958334 3.74583332,10.3333334 5.16666668,10.3333333 Z M28.0291667,15.5 C28.0291667,19.375 25.3166667,22.6041667 21.4416667,23.25 L21.3125,23.25 C21.0541667,23.25 20.6666667,22.9916667 20.6666667,22.7333333 C20.6666667,22.3458333 20.7958334,22.0875 21.1833333,21.9583333 C24.4125,21.4416666 26.7375,18.7291666 26.7375,15.5 C26.7375,12.2708334 24.4125,9.55833332 21.1833333,9.04166668 C20.7958333,9.04166668 20.5375,8.65416668 20.6666667,8.26666668 C20.7958334,7.87916668 21.0541667,7.75 21.4416667,7.75 C25.1875,8.39583332 28.0291667,11.625 28.0291667,15.5 Z M23.1208333,15.5 C23.1208333,14.3375 22.3458333,13.3041667 21.1833333,12.9166667 C20.7958333,12.7875 20.6666666,12.4 20.7958333,12.1416667 C20.925,11.7541667 21.3125,11.625 21.5708333,11.7541667 C23.25,12.2708334 24.4125,13.8208334 24.4125,15.6291667 C24.4125,17.4375 23.25,18.9875 21.5708333,19.5041667 L21.4416667,19.5041667 C21.1833334,19.5041667 20.925,19.375 20.7958333,18.9875 C20.6666666,18.6 20.925,18.3416667 21.1833333,18.2125 C22.3458333,17.6958333 23.1208333,16.6625 23.1208333,15.5 Z" id="形状" fill-rule="nonzero"></path>
                </g>
            </g>
        </g>
    </g>
</svg>