<?xml version="1.0" encoding="UTF-8"?>
<svg width="758px" height="101px" viewBox="0 0 758 101" version="1.1" xmlns="http://www.w3.org/2000/svg" xmlns:xlink="http://www.w3.org/1999/xlink">
    <!-- Generator: Sketch 52.5 (67469) - http://www.bohemiancoding.com/sketch -->
    <title>分组 13</title>
    <desc>Created with Sketch.</desc>
    <g id="Page-1" stroke="none" stroke-width="1" fill="none" fill-rule="evenodd">
        <g id="首页--未登录" transform="translate(-581.000000, -5953.000000)">
            <g id="分组-13" transform="translate(582.000000, 5954.000000)">
                <text id="提交信息" font-family="PingFang-SC-Medium, PingFang SC" font-size="16" font-weight="400" fill="#FFFFFF">
                    <tspan x="3" y="98">提交信息</tspan>
                </text>
                <g id="分组-10">
                    <circle id="椭圆形" stroke="#FFFFFF" stroke-width="2" fill-rule="nonzero" cx="34.5" cy="34.5" r="34.5"></circle>
                    <g id="编辑" transform="translate(14.000000, 17.000000)" fill="#FFFFFF">
                        <g id="分组">
                            <rect id="矩形" opacity="0" x="0" y="0" width="38" height="38"></rect>
                            <path d="M4.63566781,32.4213785 C12.7760824,31.4535565 13.2552066,30.9720293 13.2552066,30.4857345 L33.3643322,10.1757759 C34.3225806,9.20795392 34.3225806,7.75860476 33.3643322,6.79078279 L28.5777872,1.95167293 C27.6195388,0.983850959 26.1821661,0.983850959 25.2239176,1.95167293 L5.11479203,22.7479263 C5.11479203,22.7479263 4.63566781,23.2294535 3.67741935,31.4535565 C3.67741935,31.9350837 3.67741935,31.9350837 4.15654358,32.4213785 L4.63566781,32.4213785 Z M27.1404145,3.40578969 L32.4060837,8.72642674 L29.5313384,11.1435979 L24.7447934,6.30448801 L27.1404145,3.40578969 Z M22.8282965,7.75860476 L28.0939657,13.0792418 L13.2505093,28.0685634 L7.98953739,22.7479263 L22.8282965,7.75860476 Z M7.03128894,24.6835703 L11.8178339,29.5179126 C10.3804612,29.5179126 7.98953739,29.9994397 6.07304049,29.9994397 C6.07304049,28.0685634 6.55216471,25.6513923 7.03128894,24.6835703 Z M33.3643322,34.8385496 L5.59391626,34.8385496 C5.11479203,34.8385496 4.63566781,35.3200768 4.63566781,35.8063716 C4.15654358,36.2878988 4.63566781,36.7741935 5.59391626,36.7741935 L33.3643322,36.7741935 C33.8434564,36.7741935 34.3225806,36.2926664 34.3225806,35.8063716 C34.3225806,35.3200768 33.8434564,34.8385496 33.3643322,34.8385496 Z" id="形状" fill-rule="nonzero"></path>
                        </g>
                    </g>
                </g>
                <text id="专人对接" font-family="PingFang-SC-Medium, PingFang SC" font-size="16" font-weight="400" fill="#FFFFFF">
                    <tspan x="175" y="98">专人对接</tspan>
                </text>
                <g id="分组-9" transform="translate(172.000000, 0.000000)">
                    <circle id="椭圆形-copy-3" stroke="#FFFFFF" stroke-width="2" fill-rule="nonzero" cx="34.5" cy="34.5" r="34.5"></circle>
                    <g id="客服-copy" transform="translate(11.000000, 10.000000)" fill="#FFFFFF">
                        <g id="分组">
                            <rect id="矩形" opacity="0" x="0" y="0" width="48" height="48"></rect>
                            <path d="M40.125,23.652 C39.296287,23.531446 38.4599209,23.8146953 37.875,24.414 L37.875,22.5 C37.875,14.8370491 31.6629509,8.625 24,8.625 C16.3370491,8.625 10.125,14.8370491 10.125,22.5 L7.875,22.5 C7.875,13.5945 15.0945,6.375 24,6.375 C32.9055,6.375 40.125,13.5945 40.125,22.5 L40.125,23.652 Z M38.88,31.7265 C36.3683326,37.723442 30.5016756,41.62607 24,41.6250002 L24,39.375 C30.153,39.375 35.37,35.37 37.188,29.8245 C37.386,30.711 38.0325,31.4295 38.8785,31.7265 L38.88,31.7265 Z" id="形状" fill-rule="nonzero"></path>
                            <path d="M21,40.5 C21,42.1568542 22.3431458,43.5 24,43.5 C25.6568542,43.5 27,42.1568542 27,40.5 C27,38.8431458 25.6568542,37.5 24,37.5 C22.3431458,37.5 21,38.8431458 21,40.5 Z" id="路径"></path>
                            <path d="M39.75,21.375 C42.4423882,21.375 44.625,23.5576118 44.625,26.25 L44.625,29.25 C44.625,31.9423882 42.4423882,34.125 39.75,34.125 C37.0576118,34.125 34.875,31.9423882 34.875,29.25 L34.875,26.25 C34.875,23.5576118 37.0576118,21.375 39.75,21.375 Z M39.75,23.625 C38.3002525,23.625 37.125,24.8002525 37.125,26.25 L37.125,29.25 C37.125,30.6997475 38.3002525,31.875 39.75,31.875 C41.1997475,31.875 42.375,30.6997475 42.375,29.25 L42.375,26.25 C42.375,24.8002525 41.1997475,23.625 39.75,23.625 Z M8.25,21.375 C10.9423882,21.375 13.125,23.5576118 13.125,26.25 L13.125,29.25 C13.125,31.9423882 10.9423882,34.125 8.25,34.125 C5.55761184,34.125 3.375,31.9423882 3.375,29.25 L3.375,26.25 C3.375,23.5576118 5.55761184,21.375 8.25,21.375 Z M8.25,23.625 C6.80025253,23.625 5.625,24.8002525 5.625,26.25 L5.625,29.25 C5.62500003,30.6997474 6.80025255,31.8749999 8.25,31.8749999 C9.69974745,31.8749999 10.875,30.6997474 10.875,29.25 L10.875,26.25 C10.875,24.8002525 9.69974747,23.625 8.25,23.625 Z" id="形状" fill-rule="nonzero"></path>
                        </g>
                    </g>
                </g>
                <text id="跟踪服务" font-family="PingFang-SC-Medium, PingFang SC" font-size="16" font-weight="400" fill="#FFFFFF">
                    <tspan x="690" y="98">跟踪服务</tspan>
                </text>
                <g id="分组-12" transform="translate(687.000000, 0.000000)">
                    <circle id="椭圆形-copy-2" stroke="#FFFFFF" stroke-width="2" fill-rule="nonzero" cx="34.5" cy="34.5" r="34.5"></circle>
                    <g id="服-务" transform="translate(15.000000, 19.000000)" fill="#FFFFFF">
                        <g id="分组">
                            <rect id="矩形" opacity="0" x="0" y="0" width="39" height="39"></rect>
                            <path d="M31.2173672,23.8769121 C30.8920371,23.8769121 30.5726865,23.7202266 30.3763154,23.4295928 C30.0609258,22.9654395 30.1839053,22.3336699 30.6480967,22.0202227 C33.1018594,20.3619609 35.7500508,16.6227217 35.7500508,13.4757187 C35.7500508,8.43725391 31.6518135,4.33806445 26.6133486,4.33806445 C24.2091738,4.33806445 21.9359004,5.27132227 20.2121309,6.96443262 C19.8169906,7.35322487 19.1830475,7.35322487 18.7879072,6.96443262 C17.066042,5.27037012 14.7928066,4.33802637 12.3886318,4.33802637 C7.35016699,4.33802637 3.2499873,8.43721582 3.2499873,13.4757187 C3.2499873,16.9589824 5.18600977,20.0911318 8.30231543,21.6512842 C8.80417383,21.9022705 9.00652441,22.5131689 8.75660449,23.0140752 C8.50466602,23.517876 7.89372949,23.7172559 7.39381348,23.4683262 C3.58521973,21.5610205 1.21875,17.732584 1.21875,13.4757187 C1.21875,7.31745117 6.22941211,2.30671289 12.3885938,2.30671289 C15.0090586,2.30671289 17.5004883,3.21129199 19.5,4.8725625 C21.5014922,3.21129199 23.9929219,2.30675098 26.6133105,2.30675098 C32.770626,2.30678906 37.78125,7.31745117 37.78125,13.4756426 C37.78125,17.3407939 34.7323564,21.7106982 31.7866758,23.7022881 C31.6186776,23.816199 31.4203427,23.8770343 31.2173672,23.8769121 Z" id="路径"></path>
                            <path d="M29.5887744,27.3403711 C28.7517217,27.3403711 27.9661992,27.0140127 27.3750293,26.4228809 L23.5010039,22.5498838 C23.1042627,22.1531807 23.1042627,21.5104805 23.5010039,21.1137393 C23.8977451,20.7170361 24.5404453,20.7170361 24.9371484,21.1137393 L28.8111738,24.9868506 C29.2277197,25.4033965 29.9498291,25.4023682 30.366375,24.9858223 C30.7948418,24.5583457 30.7948418,23.8601162 30.366375,23.4316494 L19.2460811,12.622708 C18.8434365,12.2319463 18.8355146,11.589208 19.2262764,11.1865254 C19.6190186,10.784833 20.2617188,10.7759209 20.6624209,11.1666826 L31.7926553,21.9855264 C33.0224502,23.2163496 33.0224502,25.201998 31.8025576,26.4229189 C31.2094453,27.015041 30.4239229,27.340333 29.5888125,27.340333 L29.5887744,27.3403711 Z" id="路径"></path>
                            <path d="M26.9723848,30.7343994 C26.1710186,30.7343994 25.3695762,30.4298643 24.7586396,29.8188896 L22.7789326,27.8382305 C22.3822295,27.4415273 22.3822295,26.7988271 22.7789326,26.4020859 C23.1757119,26.0053447 23.8184121,26.0053447 24.2151533,26.4020859 L26.1948604,28.3827451 C26.6233271,28.8112119 27.3215186,28.8112119 27.7499854,28.3827451 C27.9583154,28.1744531 28.073335,27.898749 28.073335,27.6051445 C28.073335,27.3105879 27.9582393,27.0348838 27.7499854,26.8276201 L22.497249,21.5729033 C22.1005459,21.1761621 22.1005459,20.5334619 22.497249,20.1367588 C22.8939521,19.7400557 23.5367285,19.7400557 23.9334697,20.1367588 L29.1861299,25.3904473 C29.7772617,25.9815791 30.1045723,26.7680918 30.1045723,27.6051445 C30.1045723,28.4412832 29.7772236,29.2277578 29.1861299,29.819918 C28.5751934,30.4298643 27.773751,30.7343613 26.9723848,30.7343613 L26.9723848,30.7343994 Z" id="路径"></path>
                            <path d="M23.9770781,33.7316484 C23.1399492,33.7316484 22.3544648,33.4053281 21.763333,32.8142344 L21.2792988,32.3282578 C20.8825957,31.9315166 20.8825957,31.2888164 21.2792988,30.8920752 C21.67604,30.4973525 22.3187402,30.4952959 22.7155195,30.8940557 L23.1994775,31.3790801 C23.6160615,31.7936074 24.3380947,31.7945977 24.7546787,31.3780518 C25.1831455,30.949585 25.1831455,30.2503652 24.7546787,29.8218604 L23.7112764,28.7785342 C23.3145732,28.3817549 23.3145732,27.7390547 23.7112764,27.3423516 C24.1079795,26.9456484 24.7507559,26.9456104 25.1474971,27.3423516 L26.1908613,28.3857539 C27.4108301,29.6066748 27.4108301,31.5933135 26.1908613,32.8142344 C25.5996914,33.4053281 24.8141689,33.7316484 23.9770781,33.7316484 Z" id="路径"></path>
                            <path d="M21.0155156,36.693249 C20.1783867,36.693249 19.3929023,36.3668525 18.8017705,35.7757969 L18.3177363,35.2898203 C17.9210332,34.8930791 17.9210332,34.2503789 18.3177363,33.8536377 C18.7144775,33.458915 19.3571777,33.4568584 19.753957,33.8556182 L20.237915,34.3406426 C20.654499,34.7551699 21.3765322,34.7561602 21.7931162,34.3396143 C22.221583,33.9111475 22.221583,33.2119277 21.7931162,32.7834229 L21.3726855,32.3629922 C20.9759443,31.9662891 20.9759443,31.323627 21.3726855,30.9268857 C21.7694268,30.5301445 22.412165,30.5301445 22.8089062,30.9268857 L23.2292988,31.3473545 C24.4492676,32.5682373 24.4492676,34.554876 23.2292988,35.7757969 C22.6381289,36.3668906 21.8526064,36.6932109 21.0155156,36.6932109 L21.0155156,36.693249 Z M9.60557812,26.1927656 C8.77046777,26.1927656 7.98494531,25.8674355 7.39183301,25.2763418 C6.17190234,24.0544307 6.17190234,22.0687441 7.39183301,20.8478613 L10.7283135,17.5113809 C11.9165186,16.3261465 13.9755586,16.3301074 15.1558037,17.5113809 C15.7469355,18.1025127 16.0742461,18.8889873 16.0742461,19.725126 C16.0742461,20.5612646 15.7468975,21.3477393 15.1558037,21.9398613 L11.8193613,25.2753516 C11.2282676,25.8664453 10.4427451,26.1927656 9.60561621,26.1927656 L9.60557812,26.1927656 Z M12.9420586,18.625166 C12.6484922,18.625166 12.3727881,18.7401855 12.1644961,18.9485156 L8.82805371,22.2839678 C8.39958691,22.7124346 8.39958691,23.4107021 8.82805371,23.8391689 C9.24456152,24.2537344 9.96663281,24.2557148 10.3832168,23.8391689 L13.7196973,20.5026885 C13.9279512,20.2943584 14.0430469,20.0186543 14.0430469,19.725126 C14.0430469,19.4315977 13.9279512,19.1557793 13.7196973,18.9485537 C13.5113672,18.7392715 13.2356631,18.6252041 12.9420586,18.6252041 L12.9420586,18.625166 Z" id="形状" fill-rule="nonzero"></path>
                            <path d="M12.5969238,29.1841875 C11.7617754,29.1841875 10.976291,28.8588193 10.3831787,28.2677256 C9.16324805,27.0468047 9.16324805,25.0611562 10.3831787,23.8392451 L13.7196592,20.5027646 C14.9078643,19.3175303 16.9648857,19.3205771 18.1491299,20.5017744 C19.3690605,21.7237236 19.3690605,23.709334 18.1491299,24.9302549 L14.8106309,28.2667354 C14.2195371,28.8578291 13.4340146,29.1841875 12.5968857,29.1841875 L12.5969238,29.1841875 Z M15.9334043,21.6165498 C15.6397998,21.6165498 15.3640957,21.7316455 15.1558037,21.9398994 L11.8193613,25.2753896 C11.3908945,25.7038564 11.3908945,26.4020859 11.8193613,26.8305527 C12.2359453,27.2451563 12.9579785,27.2470986 13.3745625,26.8305527 L16.7130234,23.4941104 C17.1414902,23.0656436 17.1414902,22.367376 16.7130234,21.9389092 C16.5047314,21.7316074 16.2290273,21.6165498 15.9334424,21.6165498 L15.9334043,21.6165498 Z" id="形状" fill-rule="nonzero"></path>
                            <path d="M15.5882314,32.1764854 C14.7531211,32.1764854 13.9675986,31.8511172 13.3744863,31.2600234 C12.1545557,30.0381123 12.1545557,28.0515117 13.3744863,26.8305527 L16.7129473,23.4941104 C17.8932305,22.3138271 19.9522705,22.308876 21.1404375,23.493082 C22.3604443,24.7149932 22.3604443,26.7006797 21.1404375,27.9216006 L17.8019766,31.2590713 C17.2108447,31.850165 16.4253604,32.1764854 15.5882314,32.1764854 Z M18.9266924,24.6078955 C18.633126,24.6078955 18.3574219,24.7219629 18.149168,24.9302168 L14.8106689,28.2667354 C14.3822021,28.6952021 14.3822021,29.3944219 14.8106689,29.8228887 C15.2272148,30.2374541 15.9493242,30.2393965 16.3658701,29.8228887 L19.7043311,26.485418 C20.1327979,26.0569512 20.1327979,25.3587217 19.7043311,24.9302168 C19.496001,24.7229531 19.2202588,24.6078955 18.9267305,24.6078955 L18.9266924,24.6078955 Z" id="形状" fill-rule="nonzero"></path>
                            <path d="M18.5795771,35.167793 C17.7444287,35.167793 16.9589443,34.8424629 16.365832,34.2513691 C15.1459014,33.029458 15.1459014,31.0437715 16.365832,29.8228887 L19.704293,26.485418 C20.8845762,25.3041445 22.9455967,25.3011738 24.1317832,26.4844277 C25.351752,27.7073672 25.351752,29.6929395 24.1317832,30.9129463 L20.7953408,34.2503789 C20.2022285,34.842501 19.4166299,35.1678311 18.5795771,35.1678311 L18.5795771,35.167793 Z M21.9180381,27.5992031 C21.6244717,27.5992031 21.3487676,27.7132705 21.1404756,27.9215625 L17.8020146,31.2590332 C17.3735479,31.6875 17.3735479,32.3856914 17.8020146,32.8141963 C18.2185605,33.2287617 18.9426123,33.2278096 19.3591582,32.8132061 L22.6956387,29.4767256 C23.1241055,29.0482588 23.1241055,28.3500293 22.6956387,27.9215625 C22.4873848,27.7142607 22.2116045,27.5992031 21.9180381,27.5992031 Z M14.7630996,16.7129854 C13.9279512,16.7129854 13.1424287,16.3876553 12.5493545,15.7965615 C11.3293857,14.5746123 11.3293857,12.589002 12.5493545,11.368043 L18.8057314,5.49949512 C19.212375,5.11760742 19.8570176,5.13546973 20.2398955,5.54512207 C20.6246777,5.95473633 20.604873,6.59743652 20.1942686,6.98134277 L13.9616572,12.8270391 C13.5569941,13.2326543 13.5569941,13.9308838 13.9854609,14.3593887 C14.4020449,14.7739541 15.1240781,14.7759346 15.5406621,14.3593887 L19.291708,11.1250928 C19.7181943,10.7620576 20.358876,10.8076465 20.7238916,11.2321904 C21.0889072,11.6566963 21.0412998,12.2983682 20.6167559,12.664374 L16.9212393,15.8471777 C16.3856367,16.386627 15.6001523,16.7129473 14.7630996,16.7129473 L14.7630996,16.7129854 Z" id="形状" fill-rule="nonzero"></path>
                        </g>
                    </g>
                </g>
                <text id="培训上线" font-family="PingFang-SC-Medium, PingFang SC" font-size="16" font-weight="400" fill="#FFFFFF">
                    <tspan x="518" y="98">培训上线</tspan>
                </text>
                <g id="分组-11" transform="translate(515.000000, 0.000000)">
                    <circle id="椭圆形-copy-2" stroke="#FFFFFF" stroke-width="2" fill-rule="nonzero" cx="34.5" cy="34.5" r="34.5"></circle>
                    <g id="分组" transform="translate(14.000000, 15.000000)" fill="#FFFFFF">
                        <rect id="矩形" opacity="0" x="0" y="0" width="41" height="41"></rect>
                        <path d="M33.8370117,2.66259766 L7.16298828,2.66259766 C5.76962891,2.66259766 4.63652344,3.75566406 4.63652344,5.10097656 L4.63652344,34.7418945 C4.63652344,36.087207 5.76962891,37.1802734 7.16298828,37.1802734 L9.10888672,37.1802734 C9.64140625,37.1802734 10.0698242,36.7518555 10.0698242,36.2193359 C10.0698242,35.6868164 9.64140625,35.2583984 9.10888672,35.2583984 L7.16298828,35.2583984 C6.83066406,35.2583984 6.55839844,35.0261719 6.55839844,34.7418945 L6.55839844,5.10097656 C6.55839844,4.81669922 6.83066406,4.58447266 7.16298828,4.58447266 L33.8370117,4.58447266 C34.1693359,4.58447266 34.4416016,4.81669922 34.4416016,5.10097656 L34.4416016,34.7418945 C34.4416016,35.0261719 34.1693359,35.2583984 33.8370117,35.2583984 L31.3946289,35.2583984 C30.8621094,35.2583984 30.4336914,35.6868164 30.4336914,36.2193359 C30.4336914,36.7518555 30.8621094,37.1802734 31.3946289,37.1802734 L33.8370117,37.1802734 C35.2303711,37.1802734 36.3634766,36.087207 36.3634766,34.7418945 L36.3634766,5.10097656 C36.3634766,3.75566406 35.2303711,2.66259766 33.8370117,2.66259766 Z M22.7021484,13.5692383 C22.7021484,10.9947266 20.5080078,8.9046875 17.8133789,8.9046875 C15.11875,8.9046875 12.9246094,10.9987305 12.9246094,13.5692383 C12.9246094,16.1397461 15.11875,18.2337891 17.8133789,18.2337891 C20.5080078,18.2337891 22.7021484,16.14375 22.7021484,13.5692383 Z M14.8424805,13.5692383 C14.8424805,12.0557617 16.1757812,10.8265625 17.809375,10.8265625 C19.4429687,10.8265625 20.7762695,12.0597656 20.7762695,13.5692383 C20.7762695,15.0787109 19.4429687,16.3119141 17.809375,16.3119141 C16.1757812,16.3119141 14.8424805,15.0827148 14.8424805,13.5692383 Z M31.8070312,23.2026367 C32.2154297,22.8623047 32.2674805,22.2577148 31.9271484,21.8493164 C31.5868164,21.440918 30.9822266,21.3888672 30.5738281,21.7291992 L24.2076172,27.0463867 L24.2076172,19.9194336 C24.2076172,19.5710938 24.0194336,19.2547852 23.7191406,19.0826172 C23.4188477,18.9104492 23.0464844,18.918457 22.7501953,19.0946289 L19.8113281,20.8683594 C18.578125,21.6130859 17.0486328,21.6130859 15.8154297,20.8683594 L12.8765625,19.0946289 C12.5802734,18.9144531 12.2079102,18.9104492 11.9076172,19.0826172 C11.6073242,19.2547852 11.4191406,19.5710938 11.4191406,19.9194336 L11.4191406,35.6147461 C11.4191406,37.1162109 12.6243164,38.3374023 14.1017578,38.3374023 L21.5209961,38.3374023 C23.0024414,38.3374023 24.2036133,37.1162109 24.2036133,35.6147461 L24.2036133,29.552832 L31.8070312,23.2026367 Z M21.5209961,36.4155273 L14.1017578,36.4155273 C13.6813477,36.4155273 13.3410156,36.0551758 13.3410156,35.6147461 L13.3410156,21.6210938 L14.8224609,22.5139648 C16.6682617,23.6270508 18.9584961,23.6270508 20.8042969,22.5139648 L22.2857422,21.6210938 L22.2857422,35.6147461 C22.2857422,36.0551758 21.9414062,36.4155273 21.5209961,36.4155273 Z M26.3457031,11.230957 L31.9511719,11.230957 C32.4836914,11.230957 32.9121094,10.8025391 32.9121094,10.2700195 C32.9121094,9.7375 32.4836914,9.30908203 31.9511719,9.30908203 L26.3457031,9.30908203 C25.8131836,9.30908203 25.3847656,9.7375 25.3847656,10.2700195 C25.3847656,10.8025391 25.8131836,11.230957 26.3457031,11.230957 Z M26.3457031,16.1517578 L31.9511719,16.1517578 C32.4836914,16.1517578 32.9121094,15.7233398 32.9121094,15.1908203 C32.9121094,14.6583008 32.4836914,14.2298828 31.9511719,14.2298828 L26.3457031,14.2298828 C25.8131836,14.2298828 25.3847656,14.6583008 25.3847656,15.1908203 C25.3847656,15.7233398 25.8131836,16.1517578 26.3457031,16.1517578 Z" id="形状" fill-rule="nonzero"></path>
                    </g>
                </g>
                <text id="合同付款" font-family="PingFang-SC-Medium, PingFang SC" font-size="16" font-weight="400" fill="#FFFFFF">
                    <tspan x="347" y="98">合同付款</tspan>
                </text>
                <g id="分组-6" transform="translate(344.000000, 0.000000)">
                    <circle id="椭圆形-copy-4" stroke="#FFFFFF" stroke-width="2" fill-rule="nonzero" cx="34.5" cy="34.5" r="34.5"></circle>
                    <g id="付款" transform="translate(15.000000, 18.000000)" fill="#FFFFFF">
                        <g id="分组">
                            <rect id="矩形" opacity="0" x="0" y="0" width="36" height="36"></rect>
                            <path d="M9.54,34.24266 C10.11816,33.6195 10.5345,33.14916 10.9755,32.70366 C13.89366,29.772 16.8345,26.86716 19.7235,23.91516 C20.385,23.229 21.08916,22.44816 21.3795,21.5775 C21.5955,20.94066 21.402,19.86516 20.9565,19.386 C20.51784,18.90666 19.49184,18.6795 18.801,18.7965 C18.07434,18.92016 17.35434,19.49166 16.77834,20.025 C15.291,21.402 13.8825,22.86 12.44484,24.28866 C12.09834,24.63066 11.75634,24.9795 11.40534,25.308 C10.96434,25.7265 10.41084,26.082 9.96534,25.4835 C9.792,25.2495 9.95634,24.45066 10.2195,24.26616 C12.53034,22.61916 12.76434,20.28366 12.4785,17.7705 C12.34134,16.542 13.014,15.192 11.943,14.10516 C11.05434,14.877 10.125,15.6105 9.288,16.4385 C8.02116,17.69166 6.86016,19.053 5.57766,20.2905 C4.5045,21.31866 4.0545,22.5 4.0725,23.976 C4.1085,26.811 4.059,29.64816 4.0095,32.48784 C3.99816,33.1695 4.25916,34.2495 3.3165,34.3035 C2.08116,34.36434 2.4525,33.1695 2.44566,32.454 C2.42316,29.295 2.49966,26.12916 2.47716,22.97016 C2.466,21.5775 2.95416,20.50416 3.933,19.51416 C6.32466,17.09316 8.6085,14.56416 11.0115,12.1545 C12.1275,11.034 12.6585,9.81 12.5325,8.2395 C12.45816,7.35516 12.4785,6.45516 12.5415,5.5665 C12.7215,3.06 14.0625,1.62216 16.524,1.575 C20.90016,1.494 25.281,1.494 29.65716,1.57716 C32.10516,1.6245 33.5385,3.10716 33.55416,5.61366 C33.6105,13.1535 33.615,20.6955 33.56766,28.233 C33.55416,30.73716 31.9815,32.43366 29.49066,32.45616 C24.79716,32.50116 20.097,32.4 15.4035,32.23566 C14.301,32.19534 13.5495,32.5125 12.825,33.2325 C12.0285,34.02666 11.24316,34.92666 9.54,34.24266 Z M26.57016,17.14716 C26.57016,13.41666 26.57916,9.69066 26.57016,5.9625 C26.56566,3.51 26.34066,3.24216 23.9985,3.195 C21.81384,3.1455 19.62234,3.13866 17.433,3.20166 C14.91534,3.27366 14.2695,3.94866 14.247,6.4305 C14.21784,9.675 14.1885,12.91716 14.2425,16.1595 C14.256,17.07066 14.55534,17.97516 14.72184,18.88416 C15.4665,18.46116 16.22034,18.05166 16.95384,17.61066 C18.55134,16.65 20.71584,16.7175 21.9825,17.7885 C23.24484,18.855 23.6925,20.745 22.932,22.455 C22.581,23.247 22.014,23.9805 21.411,24.61716 C20.02734,26.09766 18.54,27.477 17.15634,28.95966 C16.8165,29.31966 16.71984,29.91816 16.5105,30.4065 C16.956,30.53916 17.40384,30.771 17.8515,30.7845 C19.95984,30.825 22.07034,30.83616 24.174,30.798 C26.226,30.7575 26.53416,30.456 26.56116,28.332 C26.5995,24.606 26.57016,20.87316 26.57016,17.14716 Z M28.287,16.98966 L28.296,16.98966 C28.296,17.9595 28.2915,18.927 28.296,19.89666 C28.296,22.887 28.287,25.875 28.3095,28.8675 C28.3185,29.70234 28.458,30.546 29.49966,30.69234 C30.537,30.84066 31.239,30.2175 31.57866,29.36034 C31.8375,28.7145 31.8465,27.9405 31.851,27.2295 C31.869,20.36016 31.869,13.48866 31.8555,6.62166 C31.851,5.98266 31.842,5.31216 31.662,4.70916 C31.36266,3.74166 30.58434,3.3075 29.5965,3.38616 C28.55466,3.46716 28.3275,4.23 28.3095,5.112 C28.3005,5.517 28.2915,5.91966 28.2915,6.32466 C28.287,9.8775 28.287,13.4325 28.287,16.98966 Z" id="形状" fill-rule="nonzero"></path>
                        </g>
                    </g>
                </g>
                <path id="路径-20" d="M145.5,39 L142,39 C141.723858,39 141.5,38.7761424 141.5,38.5 C141.5,38.2238576 141.723858,38 142,38 L145.5,38 L145.5,34 L154.5,38.5 L145.5,43 L145.5,39 Z M86,39 C85.7238576,39 85.5,38.7761424 85.5,38.5 C85.5,38.2238576 85.7238576,38 86,38 L90,38 C90.2761424,38 90.5,38.2238576 90.5,38.5 C90.5,38.7761424 90.2761424,39 90,39 L86,39 Z M94,39 C93.7238576,39 93.5,38.7761424 93.5,38.5 C93.5,38.2238576 93.7238576,38 94,38 L98,38 C98.2761424,38 98.5,38.2238576 98.5,38.5 C98.5,38.7761424 98.2761424,39 98,39 L94,39 Z M102,39 C101.723858,39 101.5,38.7761424 101.5,38.5 C101.5,38.2238576 101.723858,38 102,38 L106,38 C106.276142,38 106.5,38.2238576 106.5,38.5 C106.5,38.7761424 106.276142,39 106,39 L102,39 Z M110,39 C109.723858,39 109.5,38.7761424 109.5,38.5 C109.5,38.2238576 109.723858,38 110,38 L114,38 C114.276142,38 114.5,38.2238576 114.5,38.5 C114.5,38.7761424 114.276142,39 114,39 L110,39 Z M118,39 C117.723858,39 117.5,38.7761424 117.5,38.5 C117.5,38.2238576 117.723858,38 118,38 L122,38 C122.276142,38 122.5,38.2238576 122.5,38.5 C122.5,38.7761424 122.276142,39 122,39 L118,39 Z M126,39 C125.723858,39 125.5,38.7761424 125.5,38.5 C125.5,38.2238576 125.723858,38 126,38 L130,38 C130.276142,38 130.5,38.2238576 130.5,38.5 C130.5,38.7761424 130.276142,39 130,39 L126,39 Z M134,39 C133.723858,39 133.5,38.7761424 133.5,38.5 C133.5,38.2238576 133.723858,38 134,38 L138,38 C138.276142,38 138.5,38.2238576 138.5,38.5 C138.5,38.7761424 138.276142,39 138,39 L134,39 Z" fill="#FFFFFF" fill-rule="nonzero" opacity="0.516764323"></path>
                <path id="路径-20-copy" d="M319.5,39 L316,39 C315.723858,39 315.5,38.7761424 315.5,38.5 C315.5,38.2238576 315.723858,38 316,38 L319.5,38 L319.5,34 L328.5,38.5 L319.5,43 L319.5,39 Z M260,39 C259.723858,39 259.5,38.7761424 259.5,38.5 C259.5,38.2238576 259.723858,38 260,38 L264,38 C264.276142,38 264.5,38.2238576 264.5,38.5 C264.5,38.7761424 264.276142,39 264,39 L260,39 Z M268,39 C267.723858,39 267.5,38.7761424 267.5,38.5 C267.5,38.2238576 267.723858,38 268,38 L272,38 C272.276142,38 272.5,38.2238576 272.5,38.5 C272.5,38.7761424 272.276142,39 272,39 L268,39 Z M276,39 C275.723858,39 275.5,38.7761424 275.5,38.5 C275.5,38.2238576 275.723858,38 276,38 L280,38 C280.276142,38 280.5,38.2238576 280.5,38.5 C280.5,38.7761424 280.276142,39 280,39 L276,39 Z M284,39 C283.723858,39 283.5,38.7761424 283.5,38.5 C283.5,38.2238576 283.723858,38 284,38 L288,38 C288.276142,38 288.5,38.2238576 288.5,38.5 C288.5,38.7761424 288.276142,39 288,39 L284,39 Z M292,39 C291.723858,39 291.5,38.7761424 291.5,38.5 C291.5,38.2238576 291.723858,38 292,38 L296,38 C296.276142,38 296.5,38.2238576 296.5,38.5 C296.5,38.7761424 296.276142,39 296,39 L292,39 Z M300,39 C299.723858,39 299.5,38.7761424 299.5,38.5 C299.5,38.2238576 299.723858,38 300,38 L304,38 C304.276142,38 304.5,38.2238576 304.5,38.5 C304.5,38.7761424 304.276142,39 304,39 L300,39 Z M308,39 C307.723858,39 307.5,38.7761424 307.5,38.5 C307.5,38.2238576 307.723858,38 308,38 L312,38 C312.276142,38 312.5,38.2238576 312.5,38.5 C312.5,38.7761424 312.276142,39 312,39 L308,39 Z" fill="#FFFFFF" fill-rule="nonzero" opacity="0.516764323"></path>
                <path id="路径-20-copy-2" d="M485.5,39 L482,39 C481.723858,39 481.5,38.7761424 481.5,38.5 C481.5,38.2238576 481.723858,38 482,38 L485.5,38 L485.5,34 L494.5,38.5 L485.5,43 L485.5,39 Z M426,39 C425.723858,39 425.5,38.7761424 425.5,38.5 C425.5,38.2238576 425.723858,38 426,38 L430,38 C430.276142,38 430.5,38.2238576 430.5,38.5 C430.5,38.7761424 430.276142,39 430,39 L426,39 Z M434,39 C433.723858,39 433.5,38.7761424 433.5,38.5 C433.5,38.2238576 433.723858,38 434,38 L438,38 C438.276142,38 438.5,38.2238576 438.5,38.5 C438.5,38.7761424 438.276142,39 438,39 L434,39 Z M442,39 C441.723858,39 441.5,38.7761424 441.5,38.5 C441.5,38.2238576 441.723858,38 442,38 L446,38 C446.276142,38 446.5,38.2238576 446.5,38.5 C446.5,38.7761424 446.276142,39 446,39 L442,39 Z M450,39 C449.723858,39 449.5,38.7761424 449.5,38.5 C449.5,38.2238576 449.723858,38 450,38 L454,38 C454.276142,38 454.5,38.2238576 454.5,38.5 C454.5,38.7761424 454.276142,39 454,39 L450,39 Z M458,39 C457.723858,39 457.5,38.7761424 457.5,38.5 C457.5,38.2238576 457.723858,38 458,38 L462,38 C462.276142,38 462.5,38.2238576 462.5,38.5 C462.5,38.7761424 462.276142,39 462,39 L458,39 Z M466,39 C465.723858,39 465.5,38.7761424 465.5,38.5 C465.5,38.2238576 465.723858,38 466,38 L470,38 C470.276142,38 470.5,38.2238576 470.5,38.5 C470.5,38.7761424 470.276142,39 470,39 L466,39 Z M474,39 C473.723858,39 473.5,38.7761424 473.5,38.5 C473.5,38.2238576 473.723858,38 474,38 L478,38 C478.276142,38 478.5,38.2238576 478.5,38.5 C478.5,38.7761424 478.276142,39 478,39 L474,39 Z" fill="#FFFFFF" fill-rule="nonzero" opacity="0.516764323"></path>
                <path id="路径-20-copy-3" d="M662.5,39 L659,39 C658.723858,39 658.5,38.7761424 658.5,38.5 C658.5,38.2238576 658.723858,38 659,38 L662.5,38 L662.5,34 L671.5,38.5 L662.5,43 L662.5,39 Z M603,39 C602.723858,39 602.5,38.7761424 602.5,38.5 C602.5,38.2238576 602.723858,38 603,38 L607,38 C607.276142,38 607.5,38.2238576 607.5,38.5 C607.5,38.7761424 607.276142,39 607,39 L603,39 Z M611,39 C610.723858,39 610.5,38.7761424 610.5,38.5 C610.5,38.2238576 610.723858,38 611,38 L615,38 C615.276142,38 615.5,38.2238576 615.5,38.5 C615.5,38.7761424 615.276142,39 615,39 L611,39 Z M619,39 C618.723858,39 618.5,38.7761424 618.5,38.5 C618.5,38.2238576 618.723858,38 619,38 L623,38 C623.276142,38 623.5,38.2238576 623.5,38.5 C623.5,38.7761424 623.276142,39 623,39 L619,39 Z M627,39 C626.723858,39 626.5,38.7761424 626.5,38.5 C626.5,38.2238576 626.723858,38 627,38 L631,38 C631.276142,38 631.5,38.2238576 631.5,38.5 C631.5,38.7761424 631.276142,39 631,39 L627,39 Z M635,39 C634.723858,39 634.5,38.7761424 634.5,38.5 C634.5,38.2238576 634.723858,38 635,38 L639,38 C639.276142,38 639.5,38.2238576 639.5,38.5 C639.5,38.7761424 639.276142,39 639,39 L635,39 Z M643,39 C642.723858,39 642.5,38.7761424 642.5,38.5 C642.5,38.2238576 642.723858,38 643,38 L647,38 C647.276142,38 647.5,38.2238576 647.5,38.5 C647.5,38.7761424 647.276142,39 647,39 L643,39 Z M651,39 C650.723858,39 650.5,38.7761424 650.5,38.5 C650.5,38.2238576 650.723858,38 651,38 L655,38 C655.276142,38 655.5,38.2238576 655.5,38.5 C655.5,38.7761424 655.276142,39 655,39 L651,39 Z" fill="#FFFFFF" fill-rule="nonzero" opacity="0.516764323"></path>
            </g>
        </g>
    </g>
</svg>