<svg xmlns="http://www.w3.org/2000/svg" viewBox="0 0 64 64">
  <defs>
    <style>
      .cls-1 {
        fill: #fff;
      }
    </style>
  </defs>
  <title>领筑工程云-白64</title>
  <g id="其他">
    <g>
      <path class="cls-1" d="M28.38,33.34,32,37h7.62a4,4,0,0,1-3.48,2h-8.3a4,4,0,0,1-4-4v-.07a5.93,5.93,0,0,1,2.12-4.58,10.54,10.54,0,0,1,6-2.64,10.83,10.83,0,0,1,6.2,2.76.26.26,0,0,0,.36,0L41,27.87a.26.26,0,0,0,0-.39A14.81,14.81,0,0,0,32,23.56a10.84,10.84,0,0,0-2.82.47,15.94,15.94,0,0,0-5.81,3.11,10,10,0,0,0-3.59,7.73v.06a8.13,8.13,0,0,0,8.1,8.1h8.44a8,8,0,0,0,8-8V33.13a.27.27,0,0,0-.27-.27l-15.42,0A.27.27,0,0,0,28.38,33.34Z"/>
      <path class="cls-1" d="M60.5,41.84a32.15,32.15,0,0,0-1.09-8,31.38,31.38,0,0,0-7.1-13,.27.27,0,0,0-.37,0l-2.76,2.23a.28.28,0,0,0,0,.4,27.38,27.38,0,0,1,7.28,18.39H50.81L45.6,47.61a.27.27,0,0,0,0,.39l2.76,2.24a.28.28,0,0,0,.37,0l3.86-4.3H60.5V41.84Z"/>
      <path class="cls-1" d="M13.19,41.84H7.57a27.36,27.36,0,0,1,7.28-18.39.28.28,0,0,0,0-.4l-2.76-2.23a.28.28,0,0,0-.37,0,31.29,31.29,0,0,0-7.11,13,31.75,31.75,0,0,0-1.08,8v4.07H8.69l5.71-2.19a.28.28,0,0,0,.11-.44Z"/>
      <path class="cls-1" d="M45.73,20,48,17.25a.27.27,0,0,0,0-.39A30.05,30.05,0,0,0,32,11a30.05,30.05,0,0,0-15.92,5.89.27.27,0,0,0,0,.39L18.27,20a.27.27,0,0,0,.38,0,26,26,0,0,1,13.35-5,26,26,0,0,1,13.35,5A.27.27,0,0,0,45.73,20Z"/>
      <path class="cls-1" d="M41.72,49H19.6l-2.07-2.3a.29.29,0,0,0-.35,0l-3,1.91a.28.28,0,0,0-.05.42L17.79,53H44.44a.27.27,0,0,0,.21-.44Z"/>
    </g>
  </g>
</svg>
