<svg xmlns="http://www.w3.org/2000/svg" viewBox="0 0 128 128"><defs><style>.cls-1{fill:#e84133;}.cls-2{fill:#fabb02;}.cls-3{fill:#33a752;}.cls-4{fill:#da8c08;}.cls-5{fill:#4184f3;}</style></defs><title>0领筑云logo-标准 副本</title><g id="图层_2" data-name="图层 2"><path class="cls-1" d="M64,32.94A50.4,50.4,0,0,1,90.65,43.06l6.81-7.83a60.81,60.81,0,0,0-33.1-12.66l-.36,0-.36,0a60.81,60.81,0,0,0-33.1,12.66l6.81,7.83A50.4,50.4,0,0,1,64,32.94Z"/><path class="cls-2" d="M121,89.91V79.54h-.12a60.47,60.47,0,0,0-16.52-38.06c-.5-.52-1-1-1.51-1.53L95,46.77c.62.6,1.24,1.21,1.84,1.84A50.21,50.21,0,0,1,110.5,79.54H100.27L87.29,94l7.82,6.8,9.78-10.85Z"/><path class="cls-3" d="M25.15,40c-.51.5-1,1-1.51,1.53A60.47,60.47,0,0,0,7.12,79.54H7V89.91h7.16L27.73,85.5v-6H17.5A50.17,50.17,0,0,1,31.17,48.61c.59-.63,1.21-1.24,1.83-1.84Z"/><polygon class="cls-4" points="82.62 95.09 40.13 95.09 34.04 88.33 24.35 93.05 24.35 93.05 35.52 105.45 91.69 105.45 82.62 95.09"/><path class="cls-5" d="M72.42,62.7H58l6,9.07H78.38A10.53,10.53,0,0,1,69,77.6H58.85l-.39,0h-.1a3.62,3.62,0,0,1-.46-.06l-.12,0c-.12,0-.24,0-.35-.06l-.14,0-.44-.1-.07,0-.37-.1-.15-.05L55.94,77l-.12,0-.4-.16-.15-.06L55,76.61l-.17-.08-.34-.17-.18-.1-.22-.13L53.92,76l-.2-.13-.29-.19-.19-.14-.2-.15-.13-.11-.21-.16-.07-.06-.4-.37-.1-.09-.2-.2-.07-.07-.42-.46v0l-.2-.25-.06-.07q-.3-.39-.57-.81l0,0a7.52,7.52,0,0,1-.52-.92,10.43,10.43,0,0,1-1.11-4.7,10.85,10.85,0,0,1,3.17-7.57A19.37,19.37,0,0,1,64,54a19.45,19.45,0,0,1,11.75,5.42l.31.34,6.42-6.42L82.16,53a28.58,28.58,0,0,0-17.83-8.09l-.33,0-.33,0a28.48,28.48,0,0,0-17.94,8.19,19.59,19.59,0,0,0-5.18,19.09v0c0,.12.07.24.11.37v0a17.82,17.82,0,0,0,.67,1.9v0l.15.35,0,0,.15.34h0c.28.61.59,1.19.92,1.76l0,0,.18.31,0,.05.2.31h0c.28.43.58.85.89,1.26l0,0,.21.27.06.07.2.25.06.07.22.25,0,0c.24.28.5.55.76.82l.05.06.22.21.09.09.21.2.1.1.22.19.09.09.23.2,0,0,.52.43.07.05.21.17.13.1.21.16.15.1.2.15.15.1.21.14.16.11.2.13.19.12.35.21.18.11.2.11.19.11.19.1.2.11.19.1.22.1.18.09.25.12.19.08.35.16.17.07.24.1.19.07.23.09.19.07.24.08.18.07.28.08.15.05.43.13.09,0,.34.09.17,0,.27.07.18,0,.28.06.17,0,.29.06.17,0,.34.06h.11l.45.07h.13l.33,0,.17,0,.3,0,.18,0,.3,0H68.88A19.68,19.68,0,0,0,88,71.77V62.7Z"/></g></svg>