<svg xmlns="http://www.w3.org/2000/svg" xmlns:xlink="http://www.w3.org/1999/xlink" viewBox="0 0 64 64">
  <defs>
    <style>
      .cls-1 {
        fill: none;
      }

      .cls-2 {
        fill: #fff;
      }

      .cls-3 {
        opacity: 0.33;
      }

      .cls-4 {
        clip-path: url(#clip-path);
      }

      .cls-5 {
        opacity: 0.6;
      }
    </style>
    <clipPath id="clip-path">
      <rect class="cls-1" x="32.03" y="7.6" width="28.47" height="39.78"/>
    </clipPath>
  </defs>
  <title>施工队-白64</title>
  <g id="其他">
    <g>
      <path class="cls-2" d="M59.07,32.65,35.45,9a4.87,4.87,0,0,0-6.9,0L4.93,32.65a4.87,4.87,0,0,0,0,6.9l8.86,8.85c.7-2.35,1.34-4.06,1.62-4.14l9.68-3.09a10.36,10.36,0,0,0,4.61,3.75,10.5,10.5,0,0,0,5.93,0,10.34,10.34,0,0,0,4.62-3.75l9.68,3.09c.23.07.73,1.31,1.31,3.12l7.83-7.83a4.87,4.87,0,0,0,0-6.9m-15.64-2c-.14,1.37-.66,3.79-2,4.59-.85,3.33-2.69,6.25-6,7.66a7,7,0,0,1-5.48,0c-3.28-1.41-5.12-4.33-6-7.66-1.39-.8-1.91-3.22-2.06-4.59a13,13,0,0,1,0-1.32h1.78a9,9,0,0,0,.06,1c.19,1.88.87,3.4,1.51,3.4a.28.28,0,0,1,.31.26C26.26,37.43,28,39.9,30.59,41a5.36,5.36,0,0,0,4.16,0c2.62-1.13,4.33-3.6,5.08-7.06a.28.28,0,0,1,.31-.26c.63,0,1.31-1.52,1.51-3.4a9,9,0,0,0,.06-1h1.78a10.47,10.47,0,0,1-.06,1.32m.18-2.79H21.73a1.54,1.54,0,1,1,0-3.08h0c.25-1.4,1.42-8.08,7.58-9.57V25.86h.93V15.05h0a2.18,2.18,0,0,1,4.13.05h0V25.86h1V15.24c5.78,1.53,7.73,7.55,8.34,9.51h-.09a1.54,1.54,0,1,1,0,3.08"/>
      <g class="cls-3">
        <g class="cls-4">
          <path class="cls-5" d="M59.07,32.65,35.45,9A4.86,4.86,0,0,0,32,7.6v6l.27,0a2.29,2.29,0,0,1,2.07,1.5h0V25.86h1V15.24c5.78,1.53,7.73,7.54,8.34,9.51h-.09a1.54,1.54,0,1,1,0,3.08H32V41.41A5.4,5.4,0,0,0,34.75,41c2.62-1.13,4.33-3.6,5.08-7.06a.28.28,0,0,1,.31-.26c.64,0,1.31-1.52,1.51-3.4a9,9,0,0,0,.06-1h1.78a10.47,10.47,0,0,1-.06,1.32c-.14,1.37-.66,3.79-2,4.59-.85,3.33-2.7,6.25-6,7.66a7,7,0,0,1-3.38.52v1.94a9.86,9.86,0,0,0,3.6-.41,10.34,10.34,0,0,0,4.62-3.75l9.68,3.09c.23.07.73,1.31,1.31,3.12l7.83-7.83a4.87,4.87,0,0,0,0-6.9"/>
        </g>
      </g>
    </g>
  </g>
</svg>
