<svg xmlns="http://www.w3.org/2000/svg" xmlns:xlink="http://www.w3.org/1999/xlink" viewBox="0 0 128 128">
  <defs>
    <style>
      .cls-1 {
        fill: none;
      }

      .cls-2 {
        fill: #ed761a;
      }

      .cls-3 {
        opacity: 0.33;
      }

      .cls-4 {
        clip-path: url(#clip-path);
      }

      .cls-5 {
        fill: #703c1d;
      }
    </style>
    <clipPath id="clip-path">
      <rect class="cls-1" x="64.06" y="19.2" width="56.94" height="79.56"/>
    </clipPath>
  </defs>
  <title>施工队-64</title>
  <g id="其他">
    <g>
      <path class="cls-2" d="M118.14,69.3,70.9,22.05a9.76,9.76,0,0,0-13.8,0L9.86,69.3a9.75,9.75,0,0,0,0,13.79l17.71,17.72c1.4-4.7,2.7-8.12,3.25-8.28l19.35-6.2c2.45,3.26,5.34,6.06,9.24,7.52a21.35,21.35,0,0,0,11.86,0c3.89-1.46,6.79-4.26,9.23-7.52l19.35,6.2c.48.13,1.48,2.61,2.63,6.23l15.66-15.67a9.75,9.75,0,0,0,0-13.79m-31.27-4c-.29,2.72-1.34,7.56-4.12,9.17-1.7,6.66-5.38,12.5-11.93,15.31a14,14,0,0,1-11,0c-6.55-2.81-10.24-8.65-11.93-15.31-2.79-1.61-3.83-6.45-4.12-9.17a21.36,21.36,0,0,1-.11-2.65h3.56c0,.63,0,1.31.11,2,.4,3.75,1.76,6.8,3,6.8a.56.56,0,0,1,.61.51c1.5,6.92,4.92,11.86,10.17,14.12a10.61,10.61,0,0,0,8.31,0c5.26-2.26,8.68-7.2,10.17-14.12a.56.56,0,0,1,.61-.51c1.28,0,2.64-3,3-6.8a18.06,18.06,0,0,0,.11-2H87a21.36,21.36,0,0,1-.11,2.65m.34-5.6H43.47a3.08,3.08,0,1,1,0-6.15h-.08c.49-2.8,2.83-16.15,15.14-19.14V55.72h1.86V34.1l.1,0a4.37,4.37,0,0,1,8.26.1h0V55.72l2,0V34.48c11.56,3.06,15.46,15.09,16.69,19h-.2a3.08,3.08,0,1,1,0,6.15"/>
      <g class="cls-3">
        <g class="cls-4">
          <path class="cls-5" d="M118.14,69.3,70.9,22.05a9.69,9.69,0,0,0-6.84-2.85v12a4.73,4.73,0,0,1,.54,0,4.61,4.61,0,0,1,4.15,3h0V55.73l2,0V34.48c11.56,3.06,15.46,15.09,16.69,19h-.2a3.08,3.08,0,1,1,0,6.15H64.06V86.82a10.55,10.55,0,0,0,5.43-.77c5.26-2.26,8.68-7.19,10.17-14.11a.57.57,0,0,1,.61-.52c1.28,0,2.64-3,3-6.8a18.06,18.06,0,0,0,.11-2H87a21.36,21.36,0,0,1-.11,2.65c-.29,2.72-1.34,7.56-4.12,9.17-1.7,6.66-5.38,12.5-11.93,15.31a13.9,13.9,0,0,1-6.76,1v3.87a19.86,19.86,0,0,0,7.21-.8c3.89-1.46,6.79-4.26,9.23-7.52l19.35,6.2c.47.13,1.48,2.61,2.62,6.23l15.67-15.67a9.75,9.75,0,0,0,0-13.79"/>
        </g>
      </g>
    </g>
  </g>
</svg>
