<svg xmlns="http://www.w3.org/2000/svg" viewBox="0 0 64 64">
  <defs>
    <style>
      .cls-1 {
        fill: #fff;
        fill-rule: evenodd;
      }
    </style>
  </defs>
  <title>领筑-白64</title>
  <g id="其他">
    <path class="cls-1" d="M52.12,26.27,55,23.34l2.87,2.93Zm-14.83,0,2.87-2.93L43,26.27ZM55,16.75h0l6.79,6.94-2.19,2.24L55,21.23l-4.6,4.7L48.2,23.69Zm-14.83,0h0L47,23.69l-2.19,2.24-4.6-4.7-4.61,4.7-2.19-2.24ZM23.94,35.34q-.26,6.34,6.2,9.25V47q-5.7-1.78-7.81-5.32Q20,45.22,14.27,47V44.59Q21,41.8,20.59,35.21V28.88h3.35ZM8.07,22.54a15.79,15.79,0,0,1-6.82,7.23V27.23A19.57,19.57,0,0,0,6.33,18H9.68a22,22,0,0,0,5,9.25v2.41A16.22,16.22,0,0,1,8.07,22.54Zm.62,3.55a17.65,17.65,0,0,1,1.49,5.07H13.9v2.53a23.68,23.68,0,0,1-4.09,7.48c1,.68,2.06,1.39,3.22,2.15v3.93A53.92,53.92,0,0,0,2.74,40.79V38a7.35,7.35,0,0,0,1.49.51c.66.25,1.65.68,3,1.27a23,23,0,0,0,2.85-6.09H2.12V31.16h5a30.68,30.68,0,0,0-1-5.07Zm51.2,15.59h2.36v1.26c0,2.2-1,3.25-3.1,3.17H57.54c-2.32.08-3.43-1.06-3.35-3.42V30.15h-5.7v2.66Q49,43.07,42.41,46.87v-3q2.73-2.91,2.48-10.77V27.49h9.55c2.13-.08,3.24.89,3.34,2.88V42.56q-.13,1.27,1,1.14c.82.09,1.2-.29,1.11-1.14Zm-9.3-2a50.67,50.67,0,0,0-1.48-6.84h2.48a38.74,38.74,0,0,1,1.86,6.84ZM34,30.53V28h9.55v2.54H40.68V40c.91-.17,1.86-.38,2.85-.64v2.54a27.69,27.69,0,0,1-10,1.77v-3q.73,0,2-.12H37v-10Zm-8-5.7h.38a2.72,2.72,0,0,1,3,2.89V39.65h-3.1V27.36H18.36V39.65h-3.1V24.82h4.59a19.11,19.11,0,0,0,.49-3.29H14.27V19h16v2.53h-6.2c-.08.34-.16.8-.25,1.39-.16.85-.29,1.48-.37,1.9h2.49Z"/>
  </g>
</svg>
