<svg xmlns="http://www.w3.org/2000/svg" xmlns:xlink="http://www.w3.org/1999/xlink" viewBox="0 0 64 64">
  <defs>
    <style>
      .cls-1 {
        fill: #2e5fab;
      }

      .cls-2 {
        fill: #dedede;
      }

      .cls-3 {
        fill: #fff;
      }

      .cls-4 {
        fill: url(#_01);
      }
    </style>
    <linearGradient id="_01" data-name="01" x1="34.73" y1="20.52" x2="25.62" y2="36.3" gradientUnits="userSpaceOnUse">
      <stop offset="0" stop-color="#dedede"/>
      <stop offset="0.41" stop-color="#dcdcdc"/>
      <stop offset="0.6" stop-color="#d4d4d4"/>
      <stop offset="0.75" stop-color="#c7c7c7"/>
      <stop offset="0.87" stop-color="#b5b5b5"/>
      <stop offset="0.98" stop-color="#9d9d9d"/>
      <stop offset="1" stop-color="#999"/>
    </linearGradient>
  </defs>
  <title>维保-白64</title>
  <g id="其他">
    <g>
      <g>
        <polygon class="cls-1" points="3 16.2 12.24 16.2 20.4 38.97 15.47 47.8 3 16.2"/>
        <path class="cls-2" d="M22.63,16.2l4.14,12.14L30.65,16.2H52.08s7.09.45,8.16,7S57,32,57,32s4,.2,4,7-6.45,8.09-6.45,8.09L39.37,47l.19-7.5,12.25-.13,0-3.92H39.63l.06-7.34,11.25,0V23.54l-14.69.06L26.77,47.8,17.22,24.74Z"/>
      </g>
      <g>
        <polygon class="cls-3" points="3 16.2 12.24 16.2 20.4 38.97 15.47 47.8 3 16.2"/>
        <polygon class="cls-3" points="26.78 28.3 26.77 28.34 22.63 16.2 17.22 24.74 26.77 47.8 30.23 38.96 26.78 28.3"/>
      </g>
      <polygon class="cls-4" points="26.77 28.34 30.23 38.96 36.25 23.6 30.12 17.86 26.77 28.34"/>
    </g>
  </g>
</svg>
